<svg width="23" height="27" viewBox="0 0 23 27" fill="none" xmlns="http://www.w3.org/2000/svg">
<path d="M11.5002 16.875C11.3741 16.8758 11.249 16.8474 11.1323 16.7915C11.0155 16.7355 10.9093 16.653 10.8198 16.5487L6.98643 12.0487C6.80597 11.8369 6.70459 11.5496 6.70459 11.25C6.70459 10.9504 6.80597 10.6631 6.98643 10.4512C7.16689 10.2394 7.41164 10.1204 7.66684 10.1204C7.92205 10.1204 8.1668 10.2394 8.34726 10.4512L11.5002 14.1637L14.6531 10.4625C14.8364 10.2782 15.0722 10.1819 15.3134 10.1928C15.5546 10.2037 15.7834 10.3211 15.9541 10.5215C16.1248 10.7218 16.2248 10.9904 16.2341 11.2735C16.2434 11.5567 16.1613 11.8335 16.0043 12.0487L12.171 16.5487C11.9925 16.7566 11.7516 16.8737 11.5002 16.875Z" fill="white"/>
</svg>
