<svg width="57" height="50" viewBox="0 0 57 50" fill="none" xmlns="http://www.w3.org/2000/svg">
<g id="div.service-card-thumb">
<rect y="0.160004" width="57" height="49" rx="10" fill="#F6F6FF"/>
<path id="Vector" d="M23.8165 24.9201C23.8165 24.9201 23.7483 24.9789 23.6119 25.0965C23.4755 25.2141 23.2124 25.2729 22.8226 25.2729C22.4328 25.2729 22.1015 25.1553 21.8286 24.9201C21.5558 24.6849 21.4194 24.3993 21.4194 24.0633C21.4194 23.7272 21.5558 23.4416 21.8286 23.2064C22.1015 22.9712 22.4328 22.8536 22.8226 22.8536C23.2124 22.8536 23.5437 22.9712 23.8165 23.2064C24.0894 23.4416 24.2258 23.7272 24.2258 24.0633C24.2258 24.3993 24.0894 24.6849 23.8165 24.9201ZM23.2903 24.0633C23.2903 24.0633 23.2903 23.9961 23.2903 23.8616C23.2903 23.7272 23.1344 23.66 22.8226 23.66C22.5108 23.66 22.3548 23.7944 22.3548 24.0633C22.3548 24.3321 22.5108 24.4665 22.8226 24.4665C23.1344 24.4665 23.2903 24.3321 23.2903 24.0633ZM20.0746 23.2064C20.0746 23.2064 20.1428 23.2652 20.2792 23.3828C20.4157 23.5004 20.4839 23.7272 20.4839 24.0633C20.4839 24.3993 20.3474 24.6849 20.0746 24.9201C19.8017 25.1553 19.4704 25.2729 19.0806 25.2729C18.6909 25.2729 18.3595 25.1553 18.0867 24.9201C17.8138 24.6849 17.6774 24.3993 17.6774 24.0633C17.6774 23.7272 17.8138 23.4416 18.0867 23.2064C18.3595 22.9712 18.6909 22.8536 19.0806 22.8536C19.4704 22.8536 19.8017 22.9712 20.0746 23.2064ZM18.6129 24.0633C18.6129 24.0633 18.6129 24.1305 18.6129 24.2649C18.6129 24.3993 18.7688 24.4665 19.0806 24.4665C19.3925 24.4665 19.5484 24.3321 19.5484 24.0633C19.5484 23.7944 19.3925 23.66 19.0806 23.66C18.7688 23.66 18.6129 23.7944 18.6129 24.0633ZM24.2258 30.5149V34.5471H17.6774V30.5149H24.2258ZM23.2903 33.7407V31.3213H18.6129V33.7407H23.2903ZM35.9778 14.8395C35.9778 14.8395 35.9096 14.8983 35.7732 15.0159C35.6368 15.1335 35.3737 15.1923 34.9839 15.1923C34.5941 15.1923 34.2628 15.0747 33.9899 14.8395C33.7171 14.6043 33.5806 14.3186 33.5806 13.9826C33.5806 13.6466 33.7171 13.361 33.9899 13.1258C34.2628 12.8905 34.5941 12.7729 34.9839 12.7729C35.3737 12.7729 35.705 12.8905 35.9778 13.1258C36.2507 13.361 36.3871 13.6466 36.3871 13.9826C36.3871 14.3186 36.2507 14.6043 35.9778 14.8395ZM35.4516 13.9826C35.4516 13.9826 35.4516 13.9154 35.4516 13.781C35.4516 13.6466 35.2957 13.5794 34.9839 13.5794C34.672 13.5794 34.5161 13.7138 34.5161 13.9826C34.5161 14.2514 34.672 14.3858 34.9839 14.3858C35.2957 14.3858 35.4516 14.2514 35.4516 13.9826ZM42 29.2044L40.7137 29.5068C40.6358 29.6412 40.5578 29.7756 40.4798 29.91L41.1815 30.8677L38.6673 33.035L37.5565 32.4302C37.4005 32.4974 37.2446 32.5646 37.0887 32.6318L36.7379 33.7407H33.2298L32.879 32.6318C32.7231 32.5646 32.5672 32.4974 32.4113 32.4302L31.3004 33.035L28.7863 30.8677L29.4879 29.91C29.4099 29.7756 29.332 29.6412 29.254 29.5068L28.7278 29.406C28.8448 29.6412 28.9032 29.8764 28.9032 30.1116C28.9032 30.7837 28.5914 31.3213 27.9677 31.7246V36.16H13.9355V31.7246C13.3118 31.3213 13 30.7837 13 30.1116C13 29.5404 13.2241 29.0616 13.6724 28.6752C14.1206 28.2887 14.6761 28.0955 15.3387 28.0955C15.8454 28.0955 16.3132 28.2299 16.7419 28.4987C16.9758 28.3307 17.2292 28.2131 17.502 28.1459L17.619 28.0955H18.6129V27.1883C17.7944 27.0202 17.1317 26.6506 16.625 26.0794H16.2742C15.6116 26.0794 15.0561 25.8862 14.6079 25.4998C14.1596 25.1133 13.9355 24.6345 13.9355 24.0633C13.9355 23.492 14.1596 23.0132 14.6079 22.6268C15.0561 22.2403 15.6116 22.0471 16.2742 22.0471H16.5665L20.1331 12.5713C20.289 12.1345 20.5716 11.7901 20.9808 11.5381C21.3901 11.286 21.8481 11.16 22.3548 11.16C22.5887 11.16 22.8226 11.1936 23.0565 11.2608C23.914 11.4961 24.4402 12.0001 24.6351 12.7729H28.9032V11.9665H32.7036C33.3273 11.4289 34.0874 11.16 34.9839 11.16C35.8804 11.16 36.6502 11.4373 37.2933 11.9917C37.9365 12.5461 38.2581 13.2098 38.2581 13.9826C38.2581 15.1587 37.6344 16.0155 36.3871 16.5532V18.4181H37.7903C38.1801 18.4181 38.5114 18.5357 38.7843 18.7709C39.0571 19.0061 39.1935 19.2918 39.1935 19.6278C39.1935 20.0646 38.9792 20.4006 38.5504 20.6358C39.6028 21.2743 40.129 22.1479 40.129 23.2568V23.5592L41.1815 24.5169L40.4798 25.4746C40.5578 25.609 40.6358 25.7434 40.7137 25.8778L42 26.1802V29.2044ZM39.1935 23.2568C39.1935 22.5848 38.9207 22.0135 38.375 21.5431C37.8293 21.0727 37.1667 20.8375 36.3871 20.8375V21.6439C36.8938 21.6439 37.3323 21.8035 37.7026 22.1227C38.0729 22.442 38.2581 22.82 38.2581 23.2568V24.0633C38.2581 24.4329 38.1216 24.7605 37.8488 25.0461C37.5759 25.3317 37.2446 25.525 36.8548 25.6258V26.4322C37.5175 26.3314 38.0729 26.0626 38.5212 25.6258C38.9694 25.1889 39.1935 24.6681 39.1935 24.0633V23.2568ZM38.2581 27.6923C38.2581 27.4235 38.2191 27.1715 38.1411 26.9362C37.5954 27.1715 37.0108 27.2891 36.3871 27.2891H35.9194V24.8697H36.3871C36.6599 24.8697 36.8841 24.7941 37.0595 24.6429C37.2349 24.4917 37.3226 24.2985 37.3226 24.0633V23.2568C37.3226 23.0216 37.2349 22.8284 37.0595 22.6772C36.8841 22.526 36.6599 22.4504 36.3871 22.4504V22.8536C36.3871 23.1896 36.2507 23.4752 35.9778 23.7104C35.705 23.9457 35.3737 24.0633 34.9839 24.0633C34.5941 24.0633 34.2628 23.9457 33.9899 23.7104C33.7171 23.4752 33.5806 23.1896 33.5806 22.8536V22.4504C33.3078 22.4504 33.0837 22.526 32.9083 22.6772C32.7329 22.8284 32.6452 23.0216 32.6452 23.2568V24.0633C32.6452 24.2985 32.7329 24.4917 32.9083 24.6429C33.0837 24.7941 33.3078 24.8697 33.5806 24.8697H34.0484V27.2891H33.5806C32.957 27.2891 32.3723 27.1715 31.8266 26.9362C31.7487 27.1715 31.7097 27.4235 31.7097 27.6923C31.7097 28.4651 32.0313 29.1288 32.6744 29.6832C33.3175 30.2377 34.0874 30.5149 34.9839 30.5149C35.8804 30.5149 36.6502 30.2377 37.2933 29.6832C37.9365 29.1288 38.2581 28.4651 38.2581 27.6923ZM29.8387 23.2568C29.8387 22.1479 30.3649 21.2743 31.4173 20.6358C30.9886 20.4006 30.7742 20.0646 30.7742 19.6278C30.7742 19.2918 30.9106 19.0061 31.1835 18.7709C31.4563 18.5357 31.7876 18.4181 32.1774 18.4181H33.5806V16.5532C33.2298 16.3852 32.9375 16.2004 32.7036 15.9987H28.9032V15.1923H24.0504L22.4133 19.6782C22.881 20.0142 23.1539 20.4342 23.2319 20.9383C24.0504 21.1063 24.7325 21.4759 25.2782 22.0471H25.629C26.2917 22.0471 26.8471 22.2403 27.2954 22.6268C27.7436 23.0132 27.9677 23.492 27.9677 24.0633C27.9677 24.6345 27.7436 25.1133 27.2954 25.4998C26.8471 25.8862 26.2917 26.0794 25.629 26.0794H25.2782C24.7715 26.6506 24.1089 27.0202 23.2903 27.1883V28.0955H24.2843L24.4012 28.1459C24.6741 28.2131 24.9274 28.3307 25.1613 28.4987C25.5901 28.2299 26.0578 28.0955 26.5645 28.0955C27.0712 28.0955 27.539 28.2299 27.9677 28.4987V26.1802L29.254 25.8778C29.332 25.7434 29.4099 25.609 29.4879 25.4746L28.7863 24.5169L29.8387 23.5592V23.2568ZM25.8044 22.8536C25.9993 23.2568 26.0968 23.66 26.0968 24.0633C26.0968 24.4665 25.9993 24.8697 25.8044 25.2729C26.1552 25.2057 26.4476 25.0629 26.6815 24.8445C26.9153 24.6261 27.0323 24.3657 27.0323 24.0633C27.0323 23.8616 26.9835 23.6768 26.8861 23.5088C26.7886 23.3408 26.6425 23.198 26.4476 23.0804C26.2527 22.9628 26.0383 22.8872 25.8044 22.8536ZM22.2964 20.8375C22.0625 20.2998 21.6142 20.031 20.9516 20.031C20.289 20.031 19.8407 20.2998 19.6069 20.8375H22.2964ZM34.5161 20.8375V22.8536C34.5161 23.1224 34.672 23.2568 34.9839 23.2568C35.2957 23.2568 35.4516 23.1224 35.4516 22.8536V20.8375H34.5161ZM30.7742 23.2568V24.0633C30.7742 24.4665 30.8814 24.8361 31.0958 25.1721C31.3101 25.5082 31.5927 25.7854 31.9435 26.0038C32.2944 26.2222 32.6841 26.365 33.1129 26.4322V25.6258C32.7231 25.525 32.3918 25.3317 32.119 25.0461C31.8461 24.7605 31.7097 24.4329 31.7097 24.0633V23.2568C31.7097 22.82 31.8948 22.442 32.2651 22.1227C32.6354 21.8035 33.0739 21.6439 33.5806 21.6439V20.8375C32.8011 20.8375 32.1384 21.0727 31.5927 21.5431C31.047 22.0135 30.7742 22.5848 30.7742 23.2568ZM37.7903 20.031C38.1022 20.031 38.2581 19.8966 38.2581 19.6278C38.2581 19.359 38.1022 19.2246 37.7903 19.2246H32.1774C31.8656 19.2246 31.7097 19.359 31.7097 19.6278C31.7097 19.8966 31.8656 20.031 32.1774 20.031H33.5806H36.3871H37.7903ZM35.4516 18.4181V16.7548C35.2957 16.7884 35.1398 16.8052 34.9839 16.8052C34.828 16.8052 34.672 16.7884 34.5161 16.7548V18.4181H35.4516ZM36.6502 12.5461C36.6502 12.5461 36.5381 12.4495 36.314 12.2563C36.0899 12.0631 35.6465 11.9665 34.9839 11.9665C34.3212 11.9665 33.7658 12.1597 33.3175 12.5461C32.8693 12.9325 32.6452 13.4114 32.6452 13.9826C32.6452 14.5539 32.8693 15.0327 33.3175 15.4191C33.7658 15.8055 34.3212 15.9987 34.9839 15.9987C35.6465 15.9987 36.2019 15.8055 36.6502 15.4191C37.0985 15.0327 37.3226 14.5539 37.3226 13.9826C37.3226 13.4114 37.0985 12.9325 36.6502 12.5461ZM29.8387 12.7729V15.1923H32.002C31.8071 14.8227 31.7097 14.4194 31.7097 13.9826C31.7097 13.5458 31.8071 13.1426 32.002 12.7729H29.8387ZM28.9032 14.3858V13.5794H24.6351C24.5961 13.7138 24.5766 13.781 24.5766 13.781L24.3427 14.3858H28.9032ZM21.0101 12.8233L17.9113 21.1903C18.1452 21.0895 18.3985 21.0055 18.6714 20.9383C18.7493 20.4342 19.0027 20.0226 19.4315 19.7034C19.8602 19.3842 20.3669 19.2246 20.9516 19.2246C21.1465 19.2246 21.3414 19.2414 21.5363 19.275L23.6996 13.529C23.8165 13.2266 23.7873 12.9241 23.6119 12.6217C23.4365 12.3193 23.1539 12.1177 22.7641 12.0169C22.6472 11.9833 22.5108 11.9665 22.3548 11.9665C21.6922 11.9665 21.244 12.2521 21.0101 12.8233ZM14.871 24.0633C14.871 24.2649 14.9197 24.4497 15.0171 24.6177C15.1146 24.7857 15.2608 24.9285 15.4556 25.0461C15.6505 25.1637 15.8649 25.2393 16.0988 25.2729C15.9039 24.8697 15.8065 24.4665 15.8065 24.0633C15.8065 23.66 15.9039 23.2568 16.0988 22.8536C15.9039 22.8872 15.7382 22.9376 15.6018 23.0048C15.4654 23.072 15.3387 23.156 15.2218 23.2568C15.1048 23.3576 15.0171 23.4836 14.9587 23.6348C14.9002 23.786 14.871 23.9289 14.871 24.0633ZM17.5605 22.3496C17.5605 22.3496 17.4241 22.4672 17.1512 22.7024C16.8784 22.9376 16.7419 23.3912 16.7419 24.0633C16.7419 24.7353 17.0148 25.3065 17.5605 25.777C18.1062 26.2474 18.7688 26.4826 19.5484 26.4826H22.3548C23.1344 26.4826 23.797 26.2474 24.3427 25.777C24.8884 25.3065 25.1613 24.7353 25.1613 24.0633C25.1613 23.3912 24.8884 22.82 24.3427 22.3496C23.797 21.8791 23.1344 21.6439 22.3548 21.6439H19.5484C18.7688 21.6439 18.1062 21.8791 17.5605 22.3496ZM22.3548 27.2891H19.5484V28.3475L19.6653 28.4483C20.0161 28.7508 20.4449 28.902 20.9516 28.902C21.4583 28.902 21.8871 28.7508 22.2379 28.4483L22.3548 28.3475V27.2891ZM17.7944 28.902C17.2097 29.1036 16.7907 29.406 16.5373 29.8092C16.2839 30.2125 16.2157 30.6325 16.3327 31.0693L17.1512 35.3536H24.752L25.5706 31.0693C25.6875 30.6661 25.6193 30.2545 25.3659 29.8344C25.1126 29.4144 24.6935 29.1036 24.1089 28.902H22.998L22.881 29.0028C22.3353 29.4732 21.6922 29.7084 20.9516 29.7084C20.211 29.7084 19.5679 29.4732 19.0222 29.0028L18.9052 28.902H17.7944ZM15.3387 28.902C14.9489 28.902 14.6176 29.0196 14.3448 29.2548C14.0719 29.49 13.9355 29.7756 13.9355 30.1116C13.9355 30.4477 14.0719 30.7333 14.3448 30.9685C14.6176 31.2037 14.9489 31.3213 15.3387 31.3213C15.3387 31.3213 15.3582 31.3213 15.3972 31.3213V31.2205C15.2023 30.4141 15.3972 29.6916 15.9819 29.0532C15.787 28.9524 15.5726 28.902 15.3387 28.902ZM14.871 32.0774V35.3536H16.2157L15.5726 32.1278C15.4556 32.1278 15.3777 32.1278 15.3387 32.1278C15.1828 32.1278 15.0269 32.111 14.871 32.0774ZM27.0323 35.3536V32.0774C26.8763 32.111 26.7204 32.1278 26.5645 32.1278C26.5255 32.1278 26.4476 32.1278 26.3306 32.1278L25.6875 35.3536H27.0323ZM26.5645 31.3213C26.9543 31.3213 27.2856 31.2037 27.5585 30.9685C27.8313 30.7333 27.9677 30.4477 27.9677 30.1116C27.9677 29.7756 27.8313 29.49 27.5585 29.2548C27.2856 29.0196 26.9543 28.902 26.5645 28.902C26.3306 28.902 26.1163 28.9524 25.9214 29.0532C26.506 29.6916 26.7009 30.4141 26.506 31.2205V31.3213H26.5645ZM40.0121 30.7669L39.4274 29.91L39.5444 29.7084C39.7003 29.5068 39.8172 29.2884 39.8952 29.0532L39.9536 28.8516L41.0645 28.5996V26.785L39.9536 26.533L39.8952 26.3314C39.8172 26.1298 39.7198 25.9282 39.6028 25.7266C39.4079 25.9954 39.1741 26.2306 38.9012 26.4322C39.0961 26.8354 39.1935 27.2555 39.1935 27.6923C39.1935 28.7004 38.7843 29.5572 37.9657 30.2629C37.1472 30.9685 36.1532 31.3213 34.9839 31.3213C33.8145 31.3213 32.8206 30.9685 32.002 30.2629C31.1835 29.5572 30.7742 28.7004 30.7742 27.6923C30.7742 27.2555 30.8716 26.8354 31.0665 26.4322C30.7937 26.2306 30.5598 25.9954 30.3649 25.7266C30.248 25.9282 30.1505 26.1298 30.0726 26.3314L30.0141 26.533L28.9032 26.785V28.5996L30.0141 28.8516L30.0726 29.0532C30.1505 29.2884 30.2675 29.5068 30.4234 29.7084L30.5403 29.91L29.9556 30.7669L31.4173 32.027L32.4113 31.5229L32.6452 31.6237C32.879 31.7582 33.1324 31.859 33.4052 31.9262L33.6391 31.9766L33.9315 32.9342H36.0363L36.3286 31.9766L36.5625 31.9262C36.8353 31.859 37.0887 31.7582 37.3226 31.6237L37.5565 31.5229L38.5504 32.027L40.0121 30.7669Z" fill="#1F12FD"/>
</g>
</svg>
