<svg width="57" height="49" viewBox="0 0 57 49" fill="none" xmlns="http://www.w3.org/2000/svg">
<rect width="57" height="49" rx="10" fill="#F6F6FF"/>
<path d="M23.8165 24.7601C23.8165 24.7601 23.7483 24.8189 23.6119 24.9365C23.4755 25.0541 23.2124 25.1129 22.8226 25.1129C22.4328 25.1129 22.1015 24.9953 21.8286 24.7601C21.5558 24.5249 21.4194 24.2392 21.4194 23.9032C21.4194 23.5672 21.5558 23.2816 21.8286 23.0464C22.1015 22.8112 22.4328 22.6935 22.8226 22.6935C23.2124 22.6935 23.5437 22.8112 23.8165 23.0464C24.0894 23.2816 24.2258 23.5672 24.2258 23.9032C24.2258 24.2392 24.0894 24.5249 23.8165 24.7601ZM23.2903 23.9032C23.2903 23.9032 23.2903 23.836 23.2903 23.7016C23.2903 23.5672 23.1344 23.5 22.8226 23.5C22.5108 23.5 22.3548 23.6344 22.3548 23.9032C22.3548 24.172 22.5108 24.3065 22.8226 24.3065C23.1344 24.3065 23.2903 24.172 23.2903 23.9032ZM20.0746 23.0464C20.0746 23.0464 20.1428 23.1052 20.2792 23.2228C20.4157 23.3404 20.4839 23.5672 20.4839 23.9032C20.4839 24.2392 20.3474 24.5249 20.0746 24.7601C19.8017 24.9953 19.4704 25.1129 19.0806 25.1129C18.6909 25.1129 18.3595 24.9953 18.0867 24.7601C17.8138 24.5249 17.6774 24.2392 17.6774 23.9032C17.6774 23.5672 17.8138 23.2816 18.0867 23.0464C18.3595 22.8112 18.6909 22.6935 19.0806 22.6935C19.4704 22.6935 19.8017 22.8112 20.0746 23.0464ZM18.6129 23.9032C18.6129 23.9032 18.6129 23.9704 18.6129 24.1048C18.6129 24.2392 18.7688 24.3065 19.0806 24.3065C19.3925 24.3065 19.5484 24.172 19.5484 23.9032C19.5484 23.6344 19.3925 23.5 19.0806 23.5C18.7688 23.5 18.6129 23.6344 18.6129 23.9032ZM24.2258 30.3548V34.3871H17.6774V30.3548H24.2258ZM23.2903 33.5806V31.1613H18.6129V33.5806H23.2903ZM35.9778 14.6794C35.9778 14.6794 35.9096 14.7382 35.7732 14.8558C35.6368 14.9735 35.3737 15.0323 34.9839 15.0323C34.5941 15.0323 34.2628 14.9147 33.9899 14.6794C33.7171 14.4442 33.5806 14.1586 33.5806 13.8226C33.5806 13.4866 33.7171 13.2009 33.9899 12.9657C34.2628 12.7305 34.5941 12.6129 34.9839 12.6129C35.3737 12.6129 35.705 12.7305 35.9778 12.9657C36.2507 13.2009 36.3871 13.4866 36.3871 13.8226C36.3871 14.1586 36.2507 14.4442 35.9778 14.6794ZM35.4516 13.8226C35.4516 13.8226 35.4516 13.7554 35.4516 13.621C35.4516 13.4866 35.2957 13.4194 34.9839 13.4194C34.672 13.4194 34.5161 13.5538 34.5161 13.8226C34.5161 14.0914 34.672 14.2258 34.9839 14.2258C35.2957 14.2258 35.4516 14.0914 35.4516 13.8226ZM42 29.0444L40.7137 29.3468C40.6358 29.4812 40.5578 29.6156 40.4798 29.75L41.1815 30.7077L38.6673 32.875L37.5565 32.2702C37.4005 32.3374 37.2446 32.4046 37.0887 32.4718L36.7379 33.5806H33.2298L32.879 32.4718C32.7231 32.4046 32.5672 32.3374 32.4113 32.2702L31.3004 32.875L28.7863 30.7077L29.4879 29.75C29.4099 29.6156 29.332 29.4812 29.254 29.3468L28.7278 29.246C28.8448 29.4812 28.9032 29.7164 28.9032 29.9516C28.9032 30.6237 28.5914 31.1613 27.9677 31.5645V36H13.9355V31.5645C13.3118 31.1613 13 30.6237 13 29.9516C13 29.3804 13.2241 28.9015 13.6724 28.5151C14.1206 28.1287 14.6761 27.9355 15.3387 27.9355C15.8454 27.9355 16.3132 28.0699 16.7419 28.3387C16.9758 28.1707 17.2292 28.0531 17.502 27.9859L17.619 27.9355H18.6129V27.0282C17.7944 26.8602 17.1317 26.4906 16.625 25.9194H16.2742C15.6116 25.9194 15.0561 25.7261 14.6079 25.3397C14.1596 24.9533 13.9355 24.4745 13.9355 23.9032C13.9355 23.332 14.1596 22.8532 14.6079 22.4667C15.0561 22.0803 15.6116 21.8871 16.2742 21.8871H16.5665L20.1331 12.4113C20.289 11.9745 20.5716 11.63 20.9808 11.378C21.3901 11.126 21.8481 11 22.3548 11C22.5887 11 22.8226 11.0336 23.0565 11.1008C23.914 11.336 24.4402 11.8401 24.6351 12.6129H28.9032V11.8065H32.7036C33.3273 11.2688 34.0874 11 34.9839 11C35.8804 11 36.6502 11.2772 37.2933 11.8317C37.9365 12.3861 38.2581 13.0497 38.2581 13.8226C38.2581 14.9987 37.6344 15.8555 36.3871 16.3931V18.2581H37.7903C38.1801 18.2581 38.5114 18.3757 38.7843 18.6109C39.0571 18.8461 39.1935 19.1317 39.1935 19.4677C39.1935 19.9046 38.9792 20.2406 38.5504 20.4758C39.6028 21.1142 40.129 21.9879 40.129 23.0968V23.3992L41.1815 24.3569L40.4798 25.3145C40.5578 25.4489 40.6358 25.5833 40.7137 25.7177L42 26.0202V29.0444ZM39.1935 23.0968C39.1935 22.4247 38.9207 21.8535 38.375 21.3831C37.8293 20.9126 37.1667 20.6774 36.3871 20.6774V21.4839C36.8938 21.4839 37.3323 21.6435 37.7026 21.9627C38.0729 22.2819 38.2581 22.6599 38.2581 23.0968V23.9032C38.2581 24.2728 38.1216 24.6005 37.8488 24.8861C37.5759 25.1717 37.2446 25.3649 36.8548 25.4657V26.2722C37.5175 26.1714 38.0729 25.9026 38.5212 25.4657C38.9694 25.0289 39.1935 24.5081 39.1935 23.9032V23.0968ZM38.2581 27.5323C38.2581 27.2634 38.2191 27.0114 38.1411 26.7762C37.5954 27.0114 37.0108 27.129 36.3871 27.129H35.9194V24.7097H36.3871C36.6599 24.7097 36.8841 24.6341 37.0595 24.4829C37.2349 24.3317 37.3226 24.1384 37.3226 23.9032V23.0968C37.3226 22.8616 37.2349 22.6683 37.0595 22.5171C36.8841 22.3659 36.6599 22.2903 36.3871 22.2903V22.6935C36.3871 23.0296 36.2507 23.3152 35.9778 23.5504C35.705 23.7856 35.3737 23.9032 34.9839 23.9032C34.5941 23.9032 34.2628 23.7856 33.9899 23.5504C33.7171 23.3152 33.5806 23.0296 33.5806 22.6935V22.2903C33.3078 22.2903 33.0837 22.3659 32.9083 22.5171C32.7329 22.6683 32.6452 22.8616 32.6452 23.0968V23.9032C32.6452 24.1384 32.7329 24.3317 32.9083 24.4829C33.0837 24.6341 33.3078 24.7097 33.5806 24.7097H34.0484V27.129H33.5806C32.957 27.129 32.3723 27.0114 31.8266 26.7762C31.7487 27.0114 31.7097 27.2634 31.7097 27.5323C31.7097 28.3051 32.0313 28.9687 32.6744 29.5232C33.3175 30.0776 34.0874 30.3548 34.9839 30.3548C35.8804 30.3548 36.6502 30.0776 37.2933 29.5232C37.9365 28.9687 38.2581 28.3051 38.2581 27.5323ZM29.8387 23.0968C29.8387 21.9879 30.3649 21.1142 31.4173 20.4758C30.9886 20.2406 30.7742 19.9046 30.7742 19.4677C30.7742 19.1317 30.9106 18.8461 31.1835 18.6109C31.4563 18.3757 31.7876 18.2581 32.1774 18.2581H33.5806V16.3931C33.2298 16.2251 32.9375 16.0403 32.7036 15.8387H28.9032V15.0323H24.0504L22.4133 19.5181C22.881 19.8542 23.1539 20.2742 23.2319 20.7782C24.0504 20.9462 24.7325 21.3159 25.2782 21.8871H25.629C26.2917 21.8871 26.8471 22.0803 27.2954 22.4667C27.7436 22.8532 27.9677 23.332 27.9677 23.9032C27.9677 24.4745 27.7436 24.9533 27.2954 25.3397C26.8471 25.7261 26.2917 25.9194 25.629 25.9194H25.2782C24.7715 26.4906 24.1089 26.8602 23.2903 27.0282V27.9355H24.2843L24.4012 27.9859C24.6741 28.0531 24.9274 28.1707 25.1613 28.3387C25.5901 28.0699 26.0578 27.9355 26.5645 27.9355C27.0712 27.9355 27.539 28.0699 27.9677 28.3387V26.0202L29.254 25.7177C29.332 25.5833 29.4099 25.4489 29.4879 25.3145L28.7863 24.3569L29.8387 23.3992V23.0968ZM25.8044 22.6935C25.9993 23.0968 26.0968 23.5 26.0968 23.9032C26.0968 24.3065 25.9993 24.7097 25.8044 25.1129C26.1552 25.0457 26.4476 24.9029 26.6815 24.6845C26.9153 24.4661 27.0323 24.2056 27.0323 23.9032C27.0323 23.7016 26.9835 23.5168 26.8861 23.3488C26.7886 23.1808 26.6425 23.038 26.4476 22.9204C26.2527 22.8028 26.0383 22.7272 25.8044 22.6935ZM22.2964 20.6774C22.0625 20.1398 21.6142 19.871 20.9516 19.871C20.289 19.871 19.8407 20.1398 19.6069 20.6774H22.2964ZM34.5161 20.6774V22.6935C34.5161 22.9624 34.672 23.0968 34.9839 23.0968C35.2957 23.0968 35.4516 22.9624 35.4516 22.6935V20.6774H34.5161ZM30.7742 23.0968V23.9032C30.7742 24.3065 30.8814 24.6761 31.0958 25.0121C31.3101 25.3481 31.5927 25.6253 31.9435 25.8437C32.2944 26.0622 32.6841 26.205 33.1129 26.2722V25.4657C32.7231 25.3649 32.3918 25.1717 32.119 24.8861C31.8461 24.6005 31.7097 24.2728 31.7097 23.9032V23.0968C31.7097 22.6599 31.8948 22.2819 32.2651 21.9627C32.6354 21.6435 33.0739 21.4839 33.5806 21.4839V20.6774C32.8011 20.6774 32.1384 20.9126 31.5927 21.3831C31.047 21.8535 30.7742 22.4247 30.7742 23.0968ZM37.7903 19.871C38.1022 19.871 38.2581 19.7366 38.2581 19.4677C38.2581 19.1989 38.1022 19.0645 37.7903 19.0645H32.1774C31.8656 19.0645 31.7097 19.1989 31.7097 19.4677C31.7097 19.7366 31.8656 19.871 32.1774 19.871H33.5806H36.3871H37.7903ZM35.4516 18.2581V16.5948C35.2957 16.6284 35.1398 16.6452 34.9839 16.6452C34.828 16.6452 34.672 16.6284 34.5161 16.5948V18.2581H35.4516ZM36.6502 12.3861C36.6502 12.3861 36.5381 12.2895 36.314 12.0963C36.0899 11.9031 35.6465 11.8065 34.9839 11.8065C34.3212 11.8065 33.7658 11.9997 33.3175 12.3861C32.8693 12.7725 32.6452 13.2513 32.6452 13.8226C32.6452 14.3938 32.8693 14.8726 33.3175 15.2591C33.7658 15.6455 34.3212 15.8387 34.9839 15.8387C35.6465 15.8387 36.2019 15.6455 36.6502 15.2591C37.0985 14.8726 37.3226 14.3938 37.3226 13.8226C37.3226 13.2513 37.0985 12.7725 36.6502 12.3861ZM29.8387 12.6129V15.0323H32.002C31.8071 14.6626 31.7097 14.2594 31.7097 13.8226C31.7097 13.3858 31.8071 12.9825 32.002 12.6129H29.8387ZM28.9032 14.2258V13.4194H24.6351C24.5961 13.5538 24.5766 13.621 24.5766 13.621L24.3427 14.2258H28.9032ZM21.0101 12.6633L17.9113 21.0302C18.1452 20.9294 18.3985 20.8454 18.6714 20.7782C18.7493 20.2742 19.0027 19.8626 19.4315 19.5433C19.8602 19.2241 20.3669 19.0645 20.9516 19.0645C21.1465 19.0645 21.3414 19.0813 21.5363 19.1149L23.6996 13.369C23.8165 13.0665 23.7873 12.7641 23.6119 12.4617C23.4365 12.1593 23.1539 11.9577 22.7641 11.8569C22.6472 11.8233 22.5108 11.8065 22.3548 11.8065C21.6922 11.8065 21.244 12.0921 21.0101 12.6633ZM14.871 23.9032C14.871 24.1048 14.9197 24.2897 15.0171 24.4577C15.1146 24.6257 15.2608 24.7685 15.4556 24.8861C15.6505 25.0037 15.8649 25.0793 16.0988 25.1129C15.9039 24.7097 15.8065 24.3065 15.8065 23.9032C15.8065 23.5 15.9039 23.0968 16.0988 22.6935C15.9039 22.7272 15.7382 22.7776 15.6018 22.8448C15.4654 22.912 15.3387 22.996 15.2218 23.0968C15.1048 23.1976 15.0171 23.3236 14.9587 23.4748C14.9002 23.626 14.871 23.7688 14.871 23.9032ZM17.5605 22.1895C17.5605 22.1895 17.4241 22.3071 17.1512 22.5423C16.8784 22.7776 16.7419 23.2312 16.7419 23.9032C16.7419 24.5753 17.0148 25.1465 17.5605 25.6169C18.1062 26.0874 18.7688 26.3226 19.5484 26.3226H22.3548C23.1344 26.3226 23.797 26.0874 24.3427 25.6169C24.8884 25.1465 25.1613 24.5753 25.1613 23.9032C25.1613 23.2312 24.8884 22.6599 24.3427 22.1895C23.797 21.7191 23.1344 21.4839 22.3548 21.4839H19.5484C18.7688 21.4839 18.1062 21.7191 17.5605 22.1895ZM22.3548 27.129H19.5484V28.1875L19.6653 28.2883C20.0161 28.5907 20.4449 28.7419 20.9516 28.7419C21.4583 28.7419 21.8871 28.5907 22.2379 28.2883L22.3548 28.1875V27.129ZM17.7944 28.7419C17.2097 28.9435 16.7907 29.246 16.5373 29.6492C16.2839 30.0524 16.2157 30.4724 16.3327 30.9093L17.1512 35.1935H24.752L25.5706 30.9093C25.6875 30.506 25.6193 30.0944 25.3659 29.6744C25.1126 29.2544 24.6935 28.9435 24.1089 28.7419H22.998L22.881 28.8427C22.3353 29.3132 21.6922 29.5484 20.9516 29.5484C20.211 29.5484 19.5679 29.3132 19.0222 28.8427L18.9052 28.7419H17.7944ZM15.3387 28.7419C14.9489 28.7419 14.6176 28.8595 14.3448 29.0948C14.0719 29.33 13.9355 29.6156 13.9355 29.9516C13.9355 30.2876 14.0719 30.5733 14.3448 30.8085C14.6176 31.0437 14.9489 31.1613 15.3387 31.1613C15.3387 31.1613 15.3582 31.1613 15.3972 31.1613V31.0605C15.2023 30.254 15.3972 29.5316 15.9819 28.8931C15.787 28.7923 15.5726 28.7419 15.3387 28.7419ZM14.871 31.9173V35.1935H16.2157L15.5726 31.9677C15.4556 31.9677 15.3777 31.9677 15.3387 31.9677C15.1828 31.9677 15.0269 31.9509 14.871 31.9173ZM27.0323 35.1935V31.9173C26.8763 31.9509 26.7204 31.9677 26.5645 31.9677C26.5255 31.9677 26.4476 31.9677 26.3306 31.9677L25.6875 35.1935H27.0323ZM26.5645 31.1613C26.9543 31.1613 27.2856 31.0437 27.5585 30.8085C27.8313 30.5733 27.9677 30.2876 27.9677 29.9516C27.9677 29.6156 27.8313 29.33 27.5585 29.0948C27.2856 28.8595 26.9543 28.7419 26.5645 28.7419C26.3306 28.7419 26.1163 28.7923 25.9214 28.8931C26.506 29.5316 26.7009 30.254 26.506 31.0605V31.1613H26.5645ZM40.0121 30.6069L39.4274 29.75L39.5444 29.5484C39.7003 29.3468 39.8172 29.1284 39.8952 28.8931L39.9536 28.6915L41.0645 28.4395V26.625L39.9536 26.373L39.8952 26.1714C39.8172 25.9698 39.7198 25.7681 39.6028 25.5665C39.4079 25.8353 39.1741 26.0706 38.9012 26.2722C39.0961 26.6754 39.1935 27.0954 39.1935 27.5323C39.1935 28.5403 38.7843 29.3972 37.9657 30.1028C37.1472 30.8085 36.1532 31.1613 34.9839 31.1613C33.8145 31.1613 32.8206 30.8085 32.002 30.1028C31.1835 29.3972 30.7742 28.5403 30.7742 27.5323C30.7742 27.0954 30.8716 26.6754 31.0665 26.2722C30.7937 26.0706 30.5598 25.8353 30.3649 25.5665C30.248 25.7681 30.1505 25.9698 30.0726 26.1714L30.0141 26.373L28.9032 26.625V28.4395L30.0141 28.6915L30.0726 28.8931C30.1505 29.1284 30.2675 29.3468 30.4234 29.5484L30.5403 29.75L29.9556 30.6069L31.4173 31.8669L32.4113 31.3629L32.6452 31.4637C32.879 31.5981 33.1324 31.6989 33.4052 31.7661L33.6391 31.8165L33.9315 32.7742H36.0363L36.3286 31.8165L36.5625 31.7661C36.8353 31.6989 37.0887 31.5981 37.3226 31.4637L37.5565 31.3629L38.5504 31.8669L40.0121 30.6069Z" fill="#1F12FD"/>
</svg>
