<svg width="72" height="22" viewBox="0 0 72 22" fill="none" xmlns="http://www.w3.org/2000/svg">
<g clip-path="url(#clip0_288_133)">
<path d="M10 0C4.47688 0 0 4.47688 0 10C0 15.5225 4.47688 20 10 20C15.5231 20 20 15.5225 20 10C20 4.47688 15.5231 0 10 0Z" fill="#999999"/>
<path d="M8.55646 15.5643H10.8558V9.9993H12.3896L12.5927 8.0818H10.8558L10.8583 7.1218C10.8583 6.6218 10.9058 6.35367 11.6233 6.35367H12.5821V4.43555H11.0477C9.20459 4.43555 8.55646 5.36617 8.55646 6.93055V8.0818H7.40771V9.99992H8.55646V15.5643Z" fill="white"/>
</g>
<path d="M35 0C29.4769 0 25 4.47688 25 10C25 15.5225 29.4769 20 35 20C40.5231 20 45 15.5225 45 10C45 4.47688 40.5231 0 35 0Z" fill="#999999"/>
<path d="M36.3913 5.5532C35.3976 5.91507 34.7694 6.84757 34.8407 7.8682L34.8644 8.26195L34.4669 8.21382C33.0201 8.02882 31.7557 7.40195 30.6819 6.34882L30.1569 5.82632L30.0226 6.21195C29.7363 7.07195 29.9194 7.9807 30.5157 8.59195C30.8338 8.92945 30.7619 8.97757 30.2138 8.77695C30.0232 8.71257 29.8557 8.66445 29.8401 8.68882C29.7844 8.74507 29.9751 9.47632 30.1263 9.76632C30.3332 10.1688 30.7544 10.5619 31.2157 10.7957L31.6057 10.9807L31.1438 10.9876C30.6988 10.9876 30.6826 10.9957 30.7307 11.1651C30.8894 11.6876 31.5176 12.2426 32.2176 12.4838L32.7107 12.6526L32.2813 12.9101C31.6322 13.2844 30.8992 13.4889 30.1501 13.5044C29.7919 13.5126 29.4976 13.5444 29.4976 13.5688C29.4976 13.6488 30.4682 14.0988 31.0319 14.2763C32.7257 14.7988 34.7376 14.5732 36.2482 13.6813C37.3219 13.0463 38.3951 11.7838 38.8963 10.5613C39.1669 9.9107 39.4369 8.7207 39.4369 8.15007C39.4369 7.78007 39.4607 7.73195 39.9057 7.29007C40.1682 7.03257 40.4144 6.75132 40.4626 6.67132C40.5426 6.5182 40.5338 6.5182 40.1288 6.65507C39.4532 6.89632 39.3576 6.86445 39.6919 6.50257C39.9382 6.24507 40.2326 5.77882 40.2326 5.64257C40.2326 5.61882 40.1132 5.65882 39.9782 5.7307C39.8351 5.81132 39.5169 5.93195 39.2782 6.00382L38.8488 6.1407L38.4594 5.87445C38.2444 5.73007 37.9432 5.56882 37.7838 5.5207C37.3776 5.4082 36.7576 5.42445 36.3913 5.5532Z" fill="white"/>
<g clip-path="url(#clip1_288_133)">
<path d="M62 19.9995C67.5228 19.9995 72 15.5224 72 9.99951C72 4.47666 67.5228 -0.000488281 62 -0.000488281C56.4772 -0.000488281 52 4.47666 52 9.99951C52 15.5224 56.4772 19.9995 62 19.9995Z" fill="#999999"/>
<path d="M66.1045 4.01196H57.8956C56.8564 4.01196 56.0132 4.85513 56.0132 5.89617V14.105C56.0132 15.1443 56.8564 15.9874 57.8956 15.9874H66.1045C67.1437 15.9874 67.9869 15.1443 67.9869 14.105V5.89617C67.9869 4.85513 67.1437 4.01196 66.1045 4.01196ZM64.8315 5.39704L66.336 5.39347H66.3396C66.484 5.39169 66.6016 5.50934 66.6016 5.65195V7.16181C66.6016 7.3062 66.4858 7.42207 66.3414 7.42207L64.8386 7.42741C64.6942 7.42741 64.5784 7.31155 64.5784 7.16894L64.573 5.65908C64.5712 5.51469 64.6871 5.39882 64.8315 5.39704ZM60.1648 8.97114C60.2041 8.9034 60.2451 8.83566 60.2914 8.77149C60.6747 8.24028 61.2968 7.89267 61.9991 7.89267C62.7033 7.89267 63.3254 8.24028 63.7086 8.77149C63.755 8.83566 63.796 8.9034 63.8352 8.97292C64.0063 9.27596 64.1079 9.62714 64.1079 9.9997C64.1079 11.162 63.1614 12.1067 61.9991 12.1067C60.8369 12.1067 59.8921 11.162 59.8921 9.9997C59.8919 9.62714 59.9919 9.27597 60.1648 8.97114ZM66.8211 13.6736C66.8211 14.3064 66.3059 14.8216 65.6731 14.8216H58.327C57.6942 14.8216 57.179 14.3064 57.179 13.6736V8.77149H58.9669C58.9224 8.88023 58.8832 8.99432 58.8511 9.1084C58.7691 9.39183 58.7263 9.69131 58.7263 9.9997C58.7263 11.8055 60.1952 13.2743 61.9991 13.2743C63.8049 13.2743 65.2738 11.8055 65.2738 9.9997C65.2738 9.69131 65.2292 9.39183 65.149 9.1084C65.1151 8.99432 65.0777 8.88023 65.0331 8.77149H66.8211V13.6736Z" fill="white"/>
</g>
<defs>
<clipPath id="clip0_288_133">
<rect width="20" height="20" fill="white"/>
</clipPath>
<clipPath id="clip1_288_133">
<rect width="20" height="20" fill="white" transform="translate(52)"/>
</clipPath>
</defs>
</svg>
