<svg width="16" height="15" viewBox="0 0 16 15" fill="none" xmlns="http://www.w3.org/2000/svg">
<path d="M3.41892 10.86L6.81081 8.35C6.93694 8.25667 7 8.14 7 8C7 7.86 6.93694 7.74333 6.81081 7.65L3.41892 5.14C3.29279 5.04667 3.13739 5 2.9527 5C2.76802 5 2.61261 5.04667 2.48649 5.14L2.18919 5.36C2.06306 5.45333 2 5.56833 2 5.705C2 5.84167 2.06306 5.95667 2.18919 6.05L4.35135 7.65C4.48649 7.75 4.55405 7.86667 4.55405 8C4.55405 8.13333 4.48649 8.25 4.35135 8.35L2.18919 9.95C2.06306 10.0433 2 10.1583 2 10.295C2 10.4317 2.06306 10.5467 2.18919 10.64L2.48649 10.86C2.61261 10.9533 2.76802 11 2.9527 11C3.13739 11 3.29279 10.9533 3.41892 10.86Z" fill="#1F12FD"/>
</svg>
