<svg width="32" height="32" viewBox="0 0 32 32" fill="none" xmlns="http://www.w3.org/2000/svg">
<g clip-path="url(#clip0_227_278)">
<path d="M16 0C7.163 0 0 7.163 0 16C0 24.836 7.163 32 16 32C24.837 32 32 24.836 32 16C32 7.163 24.837 0 16 0Z" fill="#999999"/>
<path d="M24.2938 22.9421V16.8051C24.2938 13.5171 22.5388 11.9871 20.1978 11.9871C18.3088 11.9871 17.4628 13.0261 16.9918 13.7551V12.2381H13.4338C13.4808 13.2431 13.4338 22.9421 13.4338 22.9421H16.9918V16.9641C16.9918 16.6451 17.0148 16.3251 17.1088 16.0971C17.3658 15.4581 17.9508 14.7961 18.9338 14.7961C20.2218 14.7961 20.7368 15.7771 20.7368 17.2161V22.9431L24.2938 22.9421ZM9.6848 10.7771C10.9248 10.7771 11.6978 9.95412 11.6978 8.92712C11.6748 7.87713 10.9248 7.07812 9.7078 7.07812C8.4908 7.07812 7.6958 7.87713 7.6958 8.92712C7.6958 9.95512 8.4678 10.7771 9.6628 10.7771H9.6848ZM11.4638 22.9421V12.2381H7.9068V22.9421H11.4638Z" fill="white"/>
</g>
<defs>
<clipPath id="clip0_227_278">
<rect width="32" height="32" fill="white"/>
</clipPath>
</defs>
</svg>
