<svg width="16" height="15" viewBox="0 0 16 15" fill="none" xmlns="http://www.w3.org/2000/svg">
<path d="M9.99603 5.5625H14.3437C14.6171 5.5625 14.8632 5.75391 14.9452 6.02734C15.0546 6.27344 14.9452 6.57422 14.7265 6.73828L11.1444 9.52734L12.539 13.9023C12.6483 14.1758 12.539 14.4766 12.2929 14.6406C12.0741 14.8047 11.746 14.8047 11.5272 14.6133L7.99994 11.8789L4.44525 14.6133C4.2265 14.8047 3.89838 14.8047 3.67963 14.6406C3.43353 14.4766 3.32416 14.1758 3.43353 13.9023L4.82806 9.52734L1.24603 6.73828C1.02728 6.57422 0.917911 6.27344 1.02728 6.02734C1.10932 5.75391 1.35541 5.5625 1.65619 5.5625H5.9765L7.37103 1.21484C7.45306 0.941406 7.69916 0.75 7.99994 0.75C8.27338 0.75 8.51947 0.941406 8.6015 1.21484L9.99603 5.5625Z" fill="white"/>
</svg>
