<svg width="32" height="32" viewBox="0 0 32 32" fill="none" xmlns="http://www.w3.org/2000/svg">
<g clip-path="url(#clip0_227_282)">
<path d="M16 0C7.163 0 0 7.163 0 16C0 24.836 7.163 32 16 32C24.837 32 32 24.836 32 16C32 7.163 24.837 0 16 0Z" fill="#999999"/>
<path d="M18.2258 8.88609C16.6358 9.46509 15.6308 10.9571 15.7448 12.5901L15.7828 13.2201L15.1468 13.1431C12.8318 12.8471 10.8088 11.8441 9.0908 10.1591L8.2508 9.32309L8.0358 9.94009C7.5778 11.3161 7.8708 12.7701 8.8248 13.7481C9.3338 14.2881 9.2188 14.3651 8.3418 14.0441C8.0368 13.9411 7.7688 13.8641 7.7438 13.9031C7.6548 13.9931 7.9598 15.1631 8.2018 15.6271C8.5328 16.2711 9.2068 16.9001 9.9448 17.2741L10.5688 17.5701L9.8298 17.5811C9.1178 17.5811 9.0918 17.5941 9.1688 17.8651C9.4228 18.7011 10.4278 19.5891 11.5478 19.9751L12.3368 20.2451L11.6498 20.6571C10.6113 21.256 9.43839 21.5831 8.2398 21.6081C7.6668 21.6211 7.1958 21.6721 7.1958 21.7111C7.1958 21.8391 8.7488 22.5591 9.6508 22.8431C12.3608 23.6791 15.5798 23.3181 17.9968 21.8911C19.7148 20.8751 21.4318 18.8551 22.2338 16.8991C22.6668 15.8581 23.0988 13.9541 23.0988 13.0411C23.0988 12.4491 23.1368 12.3721 23.8488 11.6651C24.2688 11.2531 24.6628 10.8031 24.7398 10.6751C24.8678 10.4301 24.8538 10.4301 24.2058 10.6491C23.1248 11.0351 22.9718 10.9841 23.5068 10.4051C23.9008 9.99309 24.3718 9.24709 24.3718 9.02909C24.3718 8.99109 24.1808 9.05509 23.9648 9.17009C23.7358 9.29909 23.2268 9.49209 22.8448 9.60709L22.1578 9.82609L21.5348 9.40009C21.1908 9.16909 20.7088 8.91109 20.4538 8.83409C19.8038 8.65409 18.8118 8.68009 18.2258 8.88609Z" fill="white"/>
</g>
<defs>
<clipPath id="clip0_227_282">
<rect width="32" height="32" fill="white"/>
</clipPath>
</defs>
</svg>
